<?xml version="1.0" encoding="UTF-8"?>
<svg width="178px" height="46px" viewBox="0 0 178 46" version="1.1" xmlns="http://www.w3.org/2000/svg" xmlns:xlink="http://www.w3.org/1999/xlink">
    <!-- Generator: Sketch 45.1 (43504) - http://www.bohemiancoding.com/sketch -->
    <title>Group 6</title>
    <desc>Created with Sketch.</desc>
    <defs></defs>
    <g id="Symbols" stroke="none" stroke-width="1" fill="none" fill-rule="evenodd">
        <g id="Logo">
            <g id="Group-6">
                <path d="M58.392,21.832 C61.08,22.6 62.232,24.328 62.232,27.592 L62.232,36.68 C62.232,42.248 59.48,45 53.912,45 L40.6,45 L40.6,0.2 L53.784,0.2 C59.352,0.2 62.104,2.952 62.104,8.52 L62.104,15.176 C62.104,19.016 60.76,20.936 58.392,21.832 Z M53.208,9.48 C53.208,8.392 52.696,7.88 51.608,7.88 L49.496,7.88 L49.496,18.504 L51.608,18.504 C52.696,18.504 53.208,17.992 53.208,16.904 L53.208,9.48 Z M49.496,25.992 L49.496,37.32 L51.736,37.32 C52.824,37.32 53.336,36.808 53.336,35.72 L53.336,27.592 C53.336,26.504 52.824,25.992 51.736,25.992 L49.496,25.992 Z M88.0453333,45 L79.1493333,45 L78.4453333,38.472 L72.8133333,38.472 L72.1733333,45 L64.0453333,45 L69.9333333,0.2 L82.1573333,0.2 L88.0453333,45 Z M75.6293333,11.144 L73.6453333,30.664 L77.6133333,30.664 L75.6293333,11.144 Z M112.066667,45 L112.066667,0.2 L104.322667,0.2 L104.386667,9.48 L104.514667,22.408 L99.3306666,0.2 L90.1786666,0.2 L90.1786666,45 L97.9226666,45 L97.7946666,32.008 L97.6666666,20.616 L103.362667,45 L112.066667,45 Z M138.456,45 L132.824,22.216 L138.712,0.2 L129.432,0.2 L124.44,21.256 L124.44,0.2 L115.48,0.2 L115.48,45 L124.44,45 L124.44,23.816 L128.984,45 L138.456,45 Z M140.397333,0.2 L149.357333,0.2 L149.357333,37 L155.821333,37 L155.821333,45 L140.397333,45 L140.397333,0.2 Z M170.050667,29.064 L170.050667,45 L161.090667,45 L161.090667,29.704 L153.538667,0.2 L162.882667,0.2 L165.890667,15.432 L169.090667,0.2 L177.602667,0.2 L170.050667,29.064 Z" id="BANKLY-Copy" fill="#A9CEC9"></path>
                <path d="M17.2668314,4.49816862 L8.68683138,4.49816862 L8.68683138,33.3581686 C8.16683138,33.5531686 7.51683138,33.7481686 6.73683138,33.7481686 C5.50183138,33.7481686 5.04683138,33.2931686 5.04683138,32.3181686 L5.04683138,4.49816862 L-3.53316862,4.49816862 L-3.53316862,35.3731686 C-3.53316862,39.3381686 -1.51816862,41.2881686 1.92683138,41.2881686 L2.57683138,41.2881686 C5.11183138,41.2881686 6.93183138,40.1181686 8.81683138,38.4931686 L8.81683138,40.8981686 L17.2668314,40.8981686 L17.2668314,4.49816862 Z M20.3468314,40.8981686 L28.9268314,40.8981686 L28.9268314,12.0381686 C29.4468314,11.8431686 30.0968314,11.6481686 30.8768314,11.6481686 C32.1118314,11.6481686 32.5668314,12.1031686 32.5668314,13.0781686 L32.5668314,40.8981686 L41.1468314,40.8981686 L41.1468314,10.0231686 C41.1468314,6.05816862 39.1318314,4.10816862 35.6868314,4.10816862 L35.0368314,4.10816862 C32.5018314,4.10816862 30.6818314,5.27816862 28.7968314,6.90316862 L28.7968314,4.49816862 L20.3468314,4.49816862 L20.3468314,40.8981686 Z" id="un-copy" fill="#ECC925" transform="translate(18.806831, 22.698169) rotate(-270.000000) translate(-18.806831, -22.698169) "></path>
            </g>
        </g>
    </g>
</svg>